<svg version="1.1" id="Layer_1" xmlns="http://www.w3.org/2000/svg" xmlns:xlink="http://www.w3.org/1999/xlink" x="0px" y="0px"
	 viewBox="0 0 95 10" style="enable-background:new 0 0 95 10;" xml:space="preserve">
<style type="text/css">
	.st0{fill:none;stroke:#173350;stroke-linecap:round;stroke-miterlimit:10;}
	.st1{fill:#FFFFFF;}
	<defs>
		<style>
			.svgLoaded {
			-webkit-animation: stroke 5s ease-in-out forwards;
			-o-animation: stroke 5s ease-in-out forwards;
			-moz-animation: stroke 5s ease-in-out forwards;
			animation: stroke 5s ease-in-out forwards;
			stroke-dasharray: 200;
			stroke-dashoffset: 0;
			}
			
			@-webkit-keyframes stroke {
			  0% { stroke-dashoffset:  200 }
			  100% { stroke-dashoffset: 0 }
			}
			@-moz-keyframes stroke {
			  0% { stroke-dashoffset:  200 } 
			  100% { stroke-dashoffset: 0 }
			}
		</style>
	</defs>
</style>
<path class="st0" d="M0,1.5c30,0,60,0,90,0c2.4,0,4.4,1.5,4.3,3.5c0,2-2,3.5-4.3,3.5c-19.9,0-73.1,0-73.1,0"/>
<rect x="7.5" y="1" transform="matrix(0.7071 0.7071 -0.7071 0.7071 3.404 -5.2174)" class="st1" width="1" height="1"/>
<rect x="23.5" y="1" transform="matrix(0.7071 0.7071 -0.7071 0.7071 8.0904 -16.5311)" class="st1" width="1" height="1"/>
<rect x="39.5" y="1" transform="matrix(0.7071 0.7071 -0.7071 0.7071 12.7753 -27.8416)" class="st1" width="1" height="1"/>
<rect x="71.3" y="1" transform="matrix(0.7071 0.7071 -0.7071 0.7071 22.1016 -50.3573)" class="st1" width="1" height="1"/>
<rect x="39.5" y="8" transform="matrix(0.7071 0.7071 -0.7071 0.7071 17.7248 -25.7914)" class="st1" width="1" height="1"/>
<rect x="55.5" y="8" transform="matrix(0.7071 0.7071 -0.7071 0.7071 22.4111 -37.1051)" class="st1" width="1" height="1"/>
<rect x="71.3" y="8" transform="matrix(0.7071 0.7071 -0.7071 0.7071 27.0511 -48.3071)" class="st1" width="1" height="1"/>
<g>
</g>
</svg>
